<svg width="178" height="178" viewBox="0 0 178 178" fill="none" xmlns="http://www.w3.org/2000/svg">
<ellipse cx="85.1152" cy="2.80659" rx="2.04456" ry="1.93807" transform="rotate(41.5681 85.1152 2.80659)" fill="#E63946"/>
<ellipse cx="74.8277" cy="14.4067" rx="2.04456" ry="1.93807" transform="rotate(41.5681 74.8277 14.4067)" fill="#E63946"/>
<ellipse cx="64.5403" cy="26.0068" rx="2.04456" ry="1.93807" transform="rotate(41.5681 64.5403 26.0068)" fill="#E63946"/>
<ellipse cx="54.2528" cy="37.6069" rx="2.04456" ry="1.93807" transform="rotate(41.5681 54.2528 37.6069)" fill="#E63946"/>
<ellipse rx="2.04456" ry="1.93807" transform="matrix(0.748191 0.663483 -0.663536 0.748144 43.9654 49.2069)" fill="#E63946"/>
<ellipse rx="2.04456" ry="1.93807" transform="matrix(0.74819 0.663485 -0.663534 0.748146 33.6779 60.807)" fill="#E63946"/>
<ellipse cx="23.3905" cy="72.4067" rx="2.04456" ry="1.93807" transform="rotate(41.5681 23.3905 72.4067)" fill="#E63946"/>
<ellipse cx="13.1031" cy="84.0068" rx="2.04456" ry="1.93807" transform="rotate(41.5681 13.1031 84.0068)" fill="#E63946"/>
<ellipse cx="2.81558" cy="95.6069" rx="2.04456" ry="1.93807" transform="rotate(41.5681 2.81558 95.6069)" fill="#E63946"/>
<ellipse cx="96.3328" cy="12.7548" rx="2.04456" ry="1.93807" transform="rotate(41.5681 96.3328 12.7548)" fill="#E63946"/>
<ellipse cx="86.0453" cy="24.3549" rx="2.04456" ry="1.93807" transform="rotate(41.5681 86.0453 24.3549)" fill="#E63946"/>
<ellipse cx="75.7579" cy="35.955" rx="2.04456" ry="1.93807" transform="rotate(41.5681 75.7579 35.955)" fill="#E63946"/>
<ellipse cx="65.4704" cy="47.5551" rx="2.04456" ry="1.93807" transform="rotate(41.5681 65.4704 47.5551)" fill="#E63946"/>
<ellipse cx="55.183" cy="59.1547" rx="2.04456" ry="1.93807" transform="rotate(41.5681 55.183 59.1547)" fill="#E63946"/>
<ellipse cx="44.8955" cy="70.7548" rx="2.04456" ry="1.93807" transform="rotate(41.5681 44.8955 70.7548)" fill="#E63946"/>
<ellipse rx="2.04456" ry="1.93807" transform="matrix(0.748191 0.663483 -0.663536 0.748144 34.6081 82.3553)" fill="#E63946"/>
<ellipse rx="2.04456" ry="1.93807" transform="matrix(0.74819 0.663485 -0.663534 0.748146 24.3206 93.9554)" fill="#E63946"/>
<ellipse cx="14.0332" cy="105.555" rx="2.04456" ry="1.93807" transform="rotate(41.5681 14.0332 105.555)" fill="#E63946"/>
<ellipse cx="107.55" cy="22.7031" rx="2.04456" ry="1.93807" transform="rotate(41.5681 107.55 22.7031)" fill="#E63946"/>
<ellipse cx="97.2629" cy="34.3032" rx="2.04456" ry="1.93807" transform="rotate(41.5681 97.2629 34.3032)" fill="#E63946"/>
<ellipse cx="86.9755" cy="45.9033" rx="2.04456" ry="1.93807" transform="rotate(41.5681 86.9755 45.9033)" fill="#E63946"/>
<ellipse cx="76.688" cy="57.5034" rx="2.04456" ry="1.93807" transform="rotate(41.5681 76.688 57.5034)" fill="#E63946"/>
<ellipse rx="2.04456" ry="1.93807" transform="matrix(0.748191 0.663483 -0.663536 0.748144 66.4006 69.1034)" fill="#E63946"/>
<ellipse rx="2.04456" ry="1.93807" transform="matrix(0.74819 0.663485 -0.663534 0.748146 56.1132 80.7035)" fill="#E63946"/>
<ellipse rx="2.04456" ry="1.93807" transform="matrix(0.748191 0.663483 -0.663536 0.748144 45.8257 92.3036)" fill="#E63946"/>
<ellipse cx="35.5383" cy="103.903" rx="2.04456" ry="1.93807" transform="rotate(41.5681 35.5383 103.903)" fill="#E63946"/>
<ellipse cx="25.2508" cy="115.503" rx="2.04456" ry="1.93807" transform="rotate(41.5681 25.2508 115.503)" fill="#E63946"/>
<ellipse cx="118.768" cy="32.6513" rx="2.04456" ry="1.93807" transform="rotate(41.5681 118.768 32.6513)" fill="#E63946"/>
<ellipse cx="108.481" cy="44.2514" rx="2.04456" ry="1.93807" transform="rotate(41.5681 108.481 44.2514)" fill="#E63946"/>
<ellipse cx="98.1931" cy="55.8515" rx="2.04456" ry="1.93807" transform="rotate(41.5681 98.1931 55.8515)" fill="#E63946"/>
<ellipse cx="87.9057" cy="67.4516" rx="2.04456" ry="1.93807" transform="rotate(41.5681 87.9057 67.4516)" fill="#E63946"/>
<ellipse cx="77.6182" cy="79.0512" rx="2.04456" ry="1.93807" transform="rotate(41.5681 77.6182 79.0512)" fill="#E63946"/>
<ellipse cx="67.3308" cy="90.6513" rx="2.04456" ry="1.93807" transform="rotate(41.5681 67.3308 90.6513)" fill="#E63946"/>
<ellipse rx="2.04456" ry="1.93807" transform="matrix(0.748191 0.663483 -0.663536 0.748144 57.0433 102.252)" fill="#E63946"/>
<ellipse rx="2.04456" ry="1.93807" transform="matrix(0.74819 0.663485 -0.663534 0.748146 46.7559 113.852)" fill="#E63946"/>
<ellipse cx="36.4684" cy="125.452" rx="2.04456" ry="1.93807" transform="rotate(41.5681 36.4684 125.452)" fill="#E63946"/>
<ellipse rx="2.04456" ry="1.93807" transform="matrix(0.748191 0.663483 -0.663536 0.748144 129.986 42.5999)" fill="#E63946"/>
<ellipse rx="2.04456" ry="1.93807" transform="matrix(0.748161 0.663517 -0.663502 0.748175 119.698 54.2002)" fill="#E63946"/>
<ellipse rx="2.04456" ry="1.93807" transform="matrix(0.748191 0.663483 -0.663536 0.748144 109.411 65.8001)" fill="#E63946"/>
<ellipse rx="2.04456" ry="1.93807" transform="matrix(0.74819 0.663485 -0.663534 0.748146 99.1233 77.4002)" fill="#E63946"/>
<ellipse rx="2.04456" ry="1.93807" transform="matrix(0.748163 0.663515 -0.663504 0.748173 88.8358 89)" fill="#E63946"/>
<ellipse rx="2.04456" ry="1.93807" transform="matrix(0.748161 0.663517 -0.663502 0.748175 78.5484 100.6)" fill="#E63946"/>
<ellipse rx="2.04456" ry="1.93807" transform="matrix(0.748163 0.663515 -0.663504 0.748173 68.261 112.2)" fill="#E63946"/>
<ellipse rx="2.04456" ry="1.93807" transform="matrix(0.748161 0.663517 -0.663502 0.748175 57.9735 123.8)" fill="#E63946"/>
<ellipse rx="2.04456" ry="1.93807" transform="matrix(0.748163 0.663515 -0.663504 0.748173 47.6861 135.4)" fill="#E63946"/>
<ellipse cx="141.203" cy="52.5478" rx="2.04456" ry="1.93807" transform="rotate(41.5681 141.203 52.5478)" fill="#E63946"/>
<ellipse cx="130.916" cy="64.1479" rx="2.04456" ry="1.93807" transform="rotate(41.5681 130.916 64.1479)" fill="#E63946"/>
<ellipse cx="120.628" cy="75.748" rx="2.04456" ry="1.93807" transform="rotate(41.5681 120.628 75.748)" fill="#E63946"/>
<ellipse cx="110.341" cy="87.3481" rx="2.04456" ry="1.93807" transform="rotate(41.5681 110.341 87.3481)" fill="#E63946"/>
<ellipse cx="100.053" cy="98.9477" rx="2.04456" ry="1.93807" transform="rotate(41.5681 100.053 98.9477)" fill="#E63946"/>
<ellipse cx="89.766" cy="110.548" rx="2.04456" ry="1.93807" transform="rotate(41.5681 89.766 110.548)" fill="#E63946"/>
<ellipse rx="2.04456" ry="1.93807" transform="matrix(0.748191 0.663483 -0.663536 0.748144 79.4786 122.148)" fill="#E63946"/>
<ellipse rx="2.04456" ry="1.93807" transform="matrix(0.74819 0.663485 -0.663534 0.748146 69.1911 133.748)" fill="#E63946"/>
<ellipse cx="58.9037" cy="145.348" rx="2.04456" ry="1.93807" transform="rotate(41.5681 58.9037 145.348)" fill="#E63946"/>
<ellipse rx="2.04456" ry="1.93807" transform="matrix(0.748168 0.663509 -0.66351 0.748167 152.421 62.4965)" fill="#E63946"/>
<ellipse rx="2.04456" ry="1.93807" transform="matrix(0.748168 0.663509 -0.66351 0.748167 142.133 74.0966)" fill="#E63946"/>
<ellipse rx="2.04456" ry="1.93807" transform="matrix(0.748168 0.663509 -0.66351 0.748167 131.846 85.6967)" fill="#E63946"/>
<ellipse rx="2.04456" ry="1.93807" transform="matrix(0.748168 0.663509 -0.66351 0.748167 121.559 97.2968)" fill="#E63946"/>
<ellipse rx="2.04456" ry="1.93807" transform="matrix(0.748191 0.663483 -0.663536 0.748144 111.271 108.897)" fill="#E63946"/>
<ellipse rx="2.04456" ry="1.93807" transform="matrix(0.748161 0.663517 -0.663502 0.748175 100.984 120.497)" fill="#E63946"/>
<ellipse rx="2.04456" ry="1.93807" transform="matrix(0.748163 0.663515 -0.663504 0.748173 90.6962 132.097)" fill="#E63946"/>
<ellipse rx="2.04456" ry="1.93807" transform="matrix(0.748161 0.663517 -0.663502 0.748175 80.4087 143.697)" fill="#E63946"/>
<ellipse rx="2.04456" ry="1.93807" transform="matrix(0.748161 0.663517 -0.663502 0.748175 70.1213 155.297)" fill="#E63946"/>
<ellipse cx="163.638" cy="72.4448" rx="2.04456" ry="1.93807" transform="rotate(41.5681 163.638 72.4448)" fill="#E63946"/>
<ellipse cx="153.351" cy="84.0449" rx="2.04456" ry="1.93807" transform="rotate(41.5681 153.351 84.0449)" fill="#E63946"/>
<ellipse cx="143.064" cy="95.645" rx="2.04456" ry="1.93807" transform="rotate(41.5681 143.064 95.645)" fill="#E63946"/>
<ellipse cx="132.776" cy="107.245" rx="2.04456" ry="1.93807" transform="rotate(41.5681 132.776 107.245)" fill="#E63946"/>
<ellipse rx="2.04456" ry="1.93807" transform="matrix(0.748191 0.663483 -0.663536 0.748144 122.489 118.845)" fill="#E63946"/>
<ellipse rx="2.04456" ry="1.93807" transform="matrix(0.748191 0.663483 -0.663536 0.748144 112.201 130.445)" fill="#E63946"/>
<ellipse cx="101.914" cy="142.045" rx="2.04456" ry="1.93807" transform="rotate(41.5681 101.914 142.045)" fill="#E63946"/>
<ellipse cx="91.6264" cy="153.645" rx="2.04456" ry="1.93807" transform="rotate(41.5681 91.6264 153.645)" fill="#E63946"/>
<ellipse cx="81.3389" cy="165.245" rx="2.04456" ry="1.93807" transform="rotate(41.5681 81.3389 165.245)" fill="#E63946"/>
<ellipse rx="2.04456" ry="1.93807" transform="matrix(0.748168 0.663509 -0.66351 0.748167 174.856 82.393)" fill="#E63946"/>
<ellipse rx="2.04456" ry="1.93807" transform="matrix(0.748168 0.663509 -0.66351 0.748167 164.569 93.9931)" fill="#E63946"/>
<ellipse rx="2.04456" ry="1.93807" transform="matrix(0.748168 0.663509 -0.66351 0.748167 154.281 105.593)" fill="#E63946"/>
<ellipse rx="2.04456" ry="1.93807" transform="matrix(0.748168 0.663509 -0.66351 0.748167 143.994 117.193)" fill="#E63946"/>
<ellipse rx="2.04456" ry="1.93807" transform="matrix(0.74819 0.663485 -0.663534 0.748146 133.706 128.793)" fill="#E63946"/>
<ellipse rx="2.04456" ry="1.93807" transform="matrix(0.748163 0.663515 -0.663504 0.748173 123.419 140.393)" fill="#E63946"/>
<ellipse rx="2.04456" ry="1.93807" transform="matrix(0.748163 0.663515 -0.663504 0.748173 113.131 151.993)" fill="#E63946"/>
<ellipse rx="2.04456" ry="1.93807" transform="matrix(0.748163 0.663515 -0.663504 0.748173 102.844 163.593)" fill="#E63946"/>
<ellipse rx="2.04456" ry="1.93807" transform="matrix(0.748163 0.663515 -0.663504 0.748173 92.5566 175.193)" fill="#E63946"/>
</svg>
