<?xml version="1.0" encoding="UTF-8" standalone="no"?>
<svg
   xmlns:dc="http://purl.org/dc/elements/1.1/"
   xmlns:cc="http://creativecommons.org/ns#"
   xmlns:rdf="http://www.w3.org/1999/02/22-rdf-syntax-ns#"
   xmlns:svg="http://www.w3.org/2000/svg"
   xmlns="http://www.w3.org/2000/svg"
   xmlns:sodipodi="http://sodipodi.sourceforge.net/DTD/sodipodi-0.dtd"
   xmlns:inkscape="http://www.inkscape.org/namespaces/inkscape"
   width="339.38043mm"
   height="29.104303mm"
   viewBox="0 0 339.38043 29.104303"
   version="1.1"
   id="svg8"
   inkscape:version="1.0.2 (e86c870879, 2021-01-15)">
  <defs
     id="defs2" />
  <sodipodi:namedview
     id="base"
     pagecolor="#ffffff"
     bordercolor="#666666"
     borderopacity="1.0"
     inkscape:pageopacity="0.0"
     inkscape:pageshadow="2"
     inkscape:zoom="0.35"
     inkscape:cx="661.50001"
     inkscape:cy="197.42846"
     inkscape:document-units="mm"
     inkscape:current-layer="layer1"
     inkscape:document-rotation="0"
     showgrid="false"
     fit-margin-top="0"
     fit-margin-left="0"
     fit-margin-right="0"
     fit-margin-bottom="0"
     inkscape:window-width="1624"
     inkscape:window-height="1020"
     inkscape:window-x="114"
     inkscape:window-y="0"
     inkscape:window-maximized="0" />
  <metadata
     id="metadata5">
    <rdf:RDF>
      <cc:Work
         rdf:about="">
        <dc:format>image/svg+xml</dc:format>
        <dc:type
           rdf:resource="http://purl.org/dc/dcmitype/StillImage" />
        <dc:title></dc:title>
      </cc:Work>
    </rdf:RDF>
  </metadata>
  <g
     inkscape:label="Layer 1"
     inkscape:groupmode="layer"
     id="layer1"
     transform="translate(69.188545,-95.930387)">
    <path
       style="fill:#c40000;fill-opacity:1;stroke-width:0.265;stroke-miterlimit:4;stroke-dasharray:none"
       d="m 251.48646,124.77011 c 0,-0.14552 0.11906,-0.26459 0.26458,-0.26459 0.14552,0 0.26458,0.11907 0.26458,0.26459 0,0.14552 -0.11906,0.26458 -0.26458,0.26458 -0.14552,0 -0.26458,-0.11906 -0.26458,-0.26458 z m 5.82083,0 c 0,-0.14552 0.23813,-0.26459 0.52917,-0.26459 0.29104,0 0.52916,0.11907 0.52916,0.26459 0,0.14552 -0.23812,0.26458 -0.52916,0.26458 -0.29104,0 -0.52917,-0.11906 -0.52917,-0.26458 z m -7.40833,-0.52917 c 0,-0.14552 0.11906,-0.26459 0.26458,-0.26459 0.14552,0 0.26458,0.11907 0.26458,0.26459 0,0.14552 -0.11906,0.26458 -0.26458,0.26458 -0.14552,0 -0.26458,-0.11906 -0.26458,-0.26458 z m 8.99583,0 c 0,-0.14552 0.23813,-0.26459 0.52917,-0.26459 0.29104,0 0.52916,0.11907 0.52916,0.26459 0,0.14552 -0.23812,0.26458 -0.52916,0.26458 -0.29104,0 -0.52917,-0.11906 -0.52917,-0.26458 z m -10.58333,-0.52917 c 0,-0.14552 -0.19037,-0.26459 -0.42302,-0.26459 -0.23265,0 -0.75668,-0.35719 -1.16448,-0.79375 -0.4078,-0.43657 -0.8777,-0.79375 -1.04423,-0.79375 -0.39283,0 -1.60161,-1.20877 -1.60161,-1.60162 0,-0.16652 -0.35718,-0.63642 -0.79375,-1.04423 -0.43656,-0.40782 -0.79375,-0.93184 -0.79375,-1.1645 0,-0.23266 -0.11906,-0.42301 -0.26458,-0.42301 -0.14552,0 -0.26458,-0.23813 -0.26458,-0.52917 0,-0.29105 -0.11906,-0.52917 -0.26459,-0.52917 -0.14552,0 -0.26458,-0.23813 -0.26458,-0.52917 0,-0.29105 -0.11906,-0.52917 -0.26458,-0.52917 -0.14552,0 -0.26459,-0.47625 -0.26459,-1.05834 0,-0.58209 -0.11906,-1.05834 -0.26458,-1.05834 -0.16036,0 -0.26458,-1.14653 -0.26458,-2.91043 0,-1.7639 0.10422,-2.91044 0.26458,-2.91044 0.14552,0 0.26458,-0.35719 0.26458,-0.79375 0,-0.43657 0.11907,-0.79375 0.26459,-0.79375 0.14552,0 0.26458,-0.35719 0.26458,-0.79376 0,-0.43657 0.11906,-0.79375 0.26458,-0.79375 0.14553,0 0.26459,-0.21185 0.26459,-0.47076 0,-0.25892 0.23812,-0.64239 0.52916,-0.85217 0.29105,-0.20977 0.52917,-0.53592 0.52917,-0.72477 0,-0.48149 3.34261,-3.77316 3.83156,-3.77316 0.22098,0 0.40177,-0.119063 0.40177,-0.264583 0,-0.145521 0.23813,-0.264584 0.52917,-0.264584 0.29104,0 0.52917,-0.119062 0.52917,-0.264583 0,-0.145521 0.23812,-0.264583 0.52916,-0.264583 0.29105,0 0.52917,-0.119063 0.52917,-0.264584 0,-0.145521 0.35719,-0.264583 0.79375,-0.264583 0.43656,0 0.79375,-0.119063 0.79375,-0.264583 0,-0.145521 0.59531,-0.264584 1.32292,-0.264584 0.7276,0 1.32291,-0.119062 1.32291,-0.264583 0,-0.145521 0.59532,-0.264583 1.32292,-0.264583 0.72761,0 1.32292,0.119062 1.32292,0.264583 0,0.145521 0.59531,0.264583 1.32291,0.264583 0.72761,0 1.32292,0.119063 1.32292,0.264584 0,0.14552 0.35719,0.264583 0.79375,0.264583 0.43656,0 0.79375,0.119062 0.79375,0.264583 0,0.145521 0.23813,0.264584 0.52917,0.264584 0.29104,0 0.52916,0.119062 0.52916,0.264583 0,0.145521 0.19037,0.264583 0.42302,0.264583 0.23265,0 0.75668,0.357188 1.16448,0.79375 0.40781,0.436563 0.87628,0.79375 1.04101,0.79375 0.41558,0 2.13399,1.756867 2.13399,2.181737 0,0.19101 0.23813,0.51892 0.52917,0.72869 0.29104,0.20978 0.52917,0.59325 0.52917,0.85217 0,0.25891 0.11906,0.47076 0.26458,0.47076 0.14552,0 0.26458,0.23812 0.26458,0.52917 0,0.29104 0.11907,0.52917 0.26459,0.52917 0.14552,0 0.26458,0.35718 0.26458,0.79375 0,0.43657 0.11906,0.79376 0.26458,0.79376 0.14553,0 0.26459,0.59531 0.26459,1.32292 0,0.72761 0.11906,1.32292 0.26458,1.32292 0.14552,0 0.26458,0.41673 0.26458,0.92605 0,0.6976 0.11423,0.9312 0.46303,0.94693 0.27659,0.0125 0.32985,0.0746 0.13229,0.15435 -0.1819,0.0734 -0.33073,0.2922 -0.33073,0.48623 0,0.19403 0.14883,0.41283 0.33073,0.48623 0.1819,0.0734 0.003,0.14286 -0.39688,0.15434 -0.69395,0.0199 -0.7276,0.0821 -0.7276,1.34381 0,0.72761 -0.11906,1.32293 -0.26459,1.32293 -0.14552,0 -0.26458,0.23813 -0.26458,0.52917 0,0.29104 -0.11906,0.52917 -0.26458,0.52917 -0.14552,0 -0.26459,0.3309 -0.26459,0.73534 0,0.43182 -0.21841,0.89278 -0.52916,1.11675 -0.29104,0.20978 -0.52917,0.53564 -0.52917,0.72414 0,0.46844 -3.86691,4.30298 -4.3393,4.30298 -0.20852,0 -0.43225,0.14882 -0.49723,0.33072 -0.065,0.18191 -0.20812,0.24711 -0.31811,0.1449 -0.23262,-0.21612 0.48117,-1.00479 0.90938,-1.00479 0.40941,0 2.65776,-2.29489 2.65776,-2.71277 0,-0.18999 0.23813,-0.51706 0.52917,-0.72684 0.29104,-0.20977 0.52916,-0.59324 0.52916,-0.85216 0,-0.25892 0.11907,-0.47076 0.26459,-0.47076 0.14552,0 0.26458,-0.35719 0.26458,-0.79376 0,-0.43656 0.11906,-0.79375 0.26458,-0.79375 0.14553,0 0.26459,-0.35719 0.26459,-0.79376 0,-0.43656 0.11906,-0.79375 0.26458,-0.79375 0.15679,0 0.26458,-0.97014 0.26458,-2.38126 0,-1.41112 -0.10779,-2.38127 -0.26458,-2.38127 -0.14552,0 -0.26458,-0.47625 -0.26458,-1.05834 0,-0.58208 -0.11906,-1.05834 -0.26459,-1.05834 -0.14552,0 -0.26458,-0.23812 -0.26458,-0.52916 0,-0.29105 -0.11906,-0.52917 -0.26458,-0.52917 -0.14552,0 -0.26459,-0.23813 -0.26459,-0.52917 0,-0.29105 -0.11906,-0.52917 -0.26458,-0.52917 -0.14552,0 -0.26458,-0.18081 -0.26458,-0.40178 0,-0.48895 -3.29166,-3.83158 -3.77315,-3.83158 -0.18885,0 -0.51501,-0.23813 -0.72477,-0.52917 -0.20976,-0.29105 -0.59325,-0.52917 -0.85217,-0.52917 -0.25889,0 -0.47075,-0.11906 -0.47075,-0.264583 0,-0.145521 -0.35718,-0.264584 -0.79375,-0.264584 -0.43656,0 -0.79375,-0.119062 -0.79375,-0.264583 0,-0.162821 -1.32291,-0.264583 -3.43958,-0.264583 -2.11667,0 -3.43958,0.101762 -3.43958,0.264583 0,0.145521 -0.35719,0.264583 -0.79375,0.264583 -0.43656,0 -0.79375,0.119063 -0.79375,0.264584 0,0.145523 -0.23813,0.264583 -0.52917,0.264583 -0.29104,0 -0.52917,0.11906 -0.52917,0.26458 0,0.14553 -0.21185,0.26459 -0.47074,0.26459 -0.25892,0 -0.64241,0.23812 -0.85217,0.52917 -0.20976,0.29104 -0.53769,0.52917 -0.72869,0.52917 -0.45125,0 -2.18173,1.73048 -2.18173,2.18174 0,0.19101 -0.23812,0.51892 -0.52917,0.72869 -0.29104,0.20977 -0.52916,0.59325 -0.52916,0.85217 0,0.25891 -0.11906,0.47076 -0.26459,0.47076 -0.14552,0 -0.26458,0.23812 -0.26458,0.52917 0,0.29104 -0.11906,0.52917 -0.26458,0.52917 -0.14552,0 -0.26459,0.35718 -0.26459,0.79375 0,0.43656 -0.11906,0.79375 -0.26458,0.79375 -0.16282,0 -0.26458,1.32293 -0.26458,3.43961 0,2.11667 0.10176,3.4396 0.26458,3.4396 0.14552,0 0.26458,0.35719 0.26458,0.79375 0,0.43657 0.11907,0.79376 0.26459,0.79376 0.14552,0 0.26458,0.23812 0.26458,0.52917 0,0.29104 0.11906,0.52917 0.26458,0.52917 0.14553,0 0.26459,0.18051 0.26459,0.40114 0,0.45441 3.80537,4.36139 4.24796,4.36139 0.30081,0 1.0437,0.64569 1.0437,0.90714 0,0.0832 -0.11906,0.15119 -0.26458,0.15119 -0.14552,0 -0.26458,-0.11906 -0.26458,-0.26458 z m 6.15156,-0.13119 c -0.1819,-0.20661 -0.33073,-0.55927 -0.33073,-0.78369 0,-0.22443 -0.11906,-0.40804 -0.26458,-0.40804 -0.14552,0 -0.26459,-0.23813 -0.26459,-0.52917 0,-0.29105 -0.11906,-0.52917 -0.26458,-0.52917 -0.14552,0 -0.26458,-0.23813 -0.26458,-0.52917 0,-0.29105 -0.11906,-0.52917 -0.26459,-0.52917 -0.14552,0 -0.26458,-0.23813 -0.26458,-0.52917 0,-0.29105 -0.11906,-0.52917 -0.26458,-0.52917 -0.14552,0 -0.26459,-0.23813 -0.26459,-0.52917 0,-0.29105 -0.11906,-0.52917 -0.26458,-0.52917 -0.14552,0 -0.26458,-0.23813 -0.26458,-0.52917 0,-0.29105 -0.11906,-0.52917 -0.26459,-0.52917 -0.14552,0 -0.26458,-0.23813 -0.26458,-0.52917 0,-0.50565 0.1764,-0.52917 3.96875,-0.52917 2.46944,0 3.96875,0.1 3.96875,0.26458 0,0.14553 -0.11906,0.26459 -0.26458,0.26459 -0.14552,0 -0.26459,0.23812 -0.26459,0.52917 0,0.29104 -0.11906,0.52917 -0.26458,0.52917 -0.14552,0 -0.26458,0.23812 -0.26458,0.52917 0,0.29104 -0.11906,0.52917 -0.26459,0.52917 -0.14552,0 -0.26458,0.23812 -0.26458,0.52917 0,0.29104 -0.11906,0.52917 -0.26458,0.52917 -0.14552,0 -0.26459,0.23812 -0.26459,0.52917 0,0.29104 -0.11906,0.52917 -0.26458,0.52917 -0.14552,0 -0.26458,0.23812 -0.26458,0.52917 0,0.29104 -0.11906,0.52917 -0.26459,0.52917 -0.14552,0 -0.26458,0.23812 -0.26458,0.52917 0,0.29104 -0.11906,0.52917 -0.26458,0.52917 -0.14552,0 -0.26459,0.23812 -0.26459,0.52916 0,0.616 -0.26064,0.66378 -0.7276,0.1334 z m 6.01927,0.13119 c 0,-0.14552 0.11906,-0.26459 0.26458,-0.26459 0.14553,0 0.26459,0.11907 0.26459,0.26459 0,0.14552 -0.11906,0.26458 -0.26459,0.26458 -0.14552,0 -0.26458,-0.11906 -0.26458,-0.26458 z M -69.188545,111.91884 c 0,-6.42815 0.06744,-7.89159 0.377976,-8.20212 0.453636,-0.45364 6.501191,-0.55913 6.501191,-0.1134 0,0.14552 0.47625,0.26459 1.058333,0.26459 0.582083,0 1.058333,0.11906 1.058333,0.26458 0,0.14552 0.184006,0.26459 0.408902,0.26459 0.642926,0 1.707765,1.22982 1.707765,1.97236 0,0.37041 0.119063,0.67349 0.264583,0.67349 0.145521,0 0.264584,0.23812 0.264584,0.52916 0,0.29105 -0.119063,0.52917 -0.264584,0.52917 -0.14552,0 -0.264583,0.30307 -0.264583,0.67349 0,0.74254 -1.064839,1.97236 -1.707765,1.97236 -0.232513,0 -0.408902,0.22827 -0.408902,0.52917 0,0.2991 0.176389,0.52917 0.405695,0.52917 0.223132,0 0.818444,0.41276 1.322916,0.91723 0.859386,0.85939 0.917223,1.02622 0.917223,2.64585 0,0.97602 -0.115193,1.72862 -0.264584,1.72862 -0.14552,0 -0.264583,0.1871 -0.264583,0.41578 0,0.53473 -0.636993,1.17173 -1.171726,1.17173 -0.228676,0 -0.415774,0.11906 -0.415774,0.26458 0,0.14553 -0.357187,0.26459 -0.79375,0.26459 -0.436562,0 -0.79375,0.11906 -0.79375,0.26458 0,0.16463 -1.499306,0.26459 -3.96875,0.26459 h -3.96875 z m 8.617857,5.3295 c 0.207887,-0.20789 0.377976,-0.56508 0.377976,-0.79375 0,-0.22868 0.119063,-0.41578 0.264584,-0.41578 0.145521,0 0.264583,-0.42069 0.264583,-0.93487 0,-0.71392 -0.21677,-1.15163 -0.917222,-1.85209 l -0.917222,-0.91723 h -2.522362 -2.522361 v 2.64585 2.64585 h 2.797024 c 2.07131,0 2.895094,-0.0981 3.175,-0.37798 z m -2.267857,-6.76581 c 0,-0.14552 0.303068,-0.26459 0.673485,-0.26459 0.370417,0 0.965729,-0.29224 1.322917,-0.64943 1.121066,-1.12108 0.762149,-3.58392 -0.522295,-3.58392 -0.228675,0 -0.415774,-0.11907 -0.415774,-0.26459 0,-0.15679 -0.970139,-0.26458 -2.38125,-0.26458 h -2.38125 v 2.26013 c 0,1.43138 0.121274,2.39789 0.33073,2.63579 0.383615,0.43571 3.373437,0.55198 3.373437,0.13119 z m 8.466667,1.43631 c 0,-6.42815 0.06744,-7.89159 0.377976,-8.20212 0.452054,-0.45206 5.972024,-0.55687 5.972024,-0.1134 0,0.14552 0.47625,0.26459 1.058333,0.26459 0.582084,0 1.058334,0.11906 1.058334,0.26458 0,0.14552 0.182562,0.26459 0.405694,0.26459 0.223132,0 0.818445,0.41275 1.322917,0.91723 0.884234,0.88423 0.917222,0.98891 0.917222,2.91043 0,1.15241 -0.111609,1.9932 -0.264583,1.9932 -0.145521,0 -0.264584,0.18401 -0.264584,0.40891 0,0.22489 -0.292244,0.70115 -0.649431,1.05834 -0.357188,0.35718 -0.833438,0.64943 -1.058334,0.64943 -0.224896,0 -0.408901,0.11906 -0.408901,0.26459 0,0.14552 -0.238125,0.26458 -0.529167,0.26458 -0.291042,0 -0.529167,0.0928 -0.529167,0.20618 0,0.11339 0.238125,0.3778 0.529167,0.58757 0.291042,0.20978 0.529167,0.59325 0.529167,0.85217 0,0.25892 0.119062,0.47076 0.264583,0.47076 0.145521,0 0.264583,0.21184 0.264583,0.47076 0,0.25892 0.238125,0.64239 0.529167,0.85216 0.291042,0.20978 0.529167,0.59325 0.529167,0.85217 0,0.25891 0.119062,0.47076 0.264583,0.47076 0.145521,0 0.264583,0.23812 0.264583,0.52917 0,0.29104 0.119063,0.52917 0.264584,0.52917 0.14552,0 0.264583,0.23812 0.264583,0.52917 0,0.45861 -0.176389,0.52917 -1.322917,0.52917 -1.091814,0 -1.322916,-0.0822 -1.322916,-0.47076 0,-0.25892 -0.238125,-0.64239 -0.529167,-0.85217 -0.291042,-0.20977 -0.529167,-0.59324 -0.529167,-0.85216 0,-0.25892 -0.119062,-0.47076 -0.264583,-0.47076 -0.145521,0 -0.264583,-0.23813 -0.264583,-0.52917 0,-0.29105 -0.119063,-0.52917 -0.264584,-0.52917 -0.145521,0 -0.264583,-0.21184 -0.264583,-0.47076 0,-0.25892 -0.238125,-0.64239 -0.529167,-0.85217 -0.291041,-0.20977 -0.529166,-0.54222 -0.529166,-0.73877 0,-0.63422 -0.731946,-1.11332 -1.700893,-1.11332 h -0.944941 v 3.4396 3.43961 h -1.322917 -1.322916 z m 8.078611,-1.55979 c 0.745846,-0.74584 0.917222,-1.11826 0.917222,-1.9932 0,-0.87494 -0.171376,-1.24736 -0.917222,-1.99321 -0.903258,-0.90326 -0.951595,-0.91722 -3.175,-0.91722 h -2.257778 v 2.91043 2.91043 h 2.257778 c 2.223405,0 2.271742,-0.014 3.175,-0.91723 z m 6.208889,8.85478 c 0,-0.29105 0.119062,-0.52917 0.264583,-0.52917 0.145521,0 0.264584,-0.23813 0.264584,-0.52917 0,-0.29105 0.119062,-0.52917 0.264583,-0.52917 0.145521,0 0.264583,-0.35719 0.264583,-0.79376 0,-0.43656 0.119063,-0.79375 0.264584,-0.79375 0.14552,0 0.264583,-0.35719 0.264583,-0.79376 0,-0.43656 0.119062,-0.79375 0.264583,-0.79375 0.145521,0 0.264584,-0.35719 0.264584,-0.79376 0,-0.43656 0.119062,-0.79375 0.264583,-0.79375 0.145521,0 0.264583,-0.35719 0.264583,-0.79375 0,-0.43657 0.119063,-0.79376 0.264584,-0.79376 0.14552,0 0.264583,-0.23813 0.264583,-0.52917 0,-0.29104 0.119062,-0.52917 0.264583,-0.52917 0.145521,0 0.264584,-0.35719 0.264584,-0.79375 0,-0.43657 0.119062,-0.79376 0.264583,-0.79376 0.145521,0 0.264583,-0.35719 0.264583,-0.79375 0,-0.43657 0.119063,-0.79375 0.264584,-0.79375 0.14552,0 0.264583,-0.3572 0.264583,-0.79376 0,-0.43657 0.119063,-0.79375 0.264583,-0.79375 0.145521,0 0.264584,-0.30617 0.264584,-0.68036 0,-0.97519 0.594608,-1.43632 1.852083,-1.43632 1.257475,0 1.852083,0.46113 1.852083,1.43632 0,0.37419 0.119063,0.68036 0.264584,0.68036 0.145521,0 0.264583,0.35718 0.264583,0.79375 0,0.43656 0.119063,0.79376 0.264583,0.79376 0.145521,0 0.264584,0.23812 0.264584,0.52916 0,0.29105 0.119062,0.52917 0.264583,0.52917 0.145521,0 0.264583,0.35719 0.264583,0.79376 0,0.43656 0.119063,0.79375 0.264584,0.79375 0.145521,0 0.264583,0.35719 0.264583,0.79376 0,0.43656 0.119063,0.79375 0.264583,0.79375 0.145521,0 0.264584,0.35719 0.264584,0.79376 0,0.43656 0.119062,0.79375 0.264583,0.79375 0.145521,0 0.264583,0.35719 0.264583,0.79375 0,0.43657 0.119063,0.79376 0.264584,0.79376 0.145521,0 0.264583,0.23813 0.264583,0.52917 0,0.29104 0.119063,0.52917 0.264583,0.52917 0.145521,0 0.264584,0.35719 0.264584,0.79375 0,0.43657 0.119062,0.79376 0.264583,0.79376 0.145521,0 0.264583,0.35719 0.264583,0.79375 0,0.43657 0.119063,0.79376 0.264584,0.79376 0.145521,0 0.264583,0.23812 0.264583,0.52917 0,0.45861 -0.17639,0.52917 -1.322917,0.52917 -1.293518,0 -1.322916,-0.0176 -1.322916,-0.79376 0,-0.43656 -0.119063,-0.79375 -0.264584,-0.79375 -0.14552,0 -0.264583,-0.30617 -0.264583,-0.68036 0,-1.26499 -0.473427,-1.43632 -3.96875,-1.43632 -3.495323,0 -3.96875,0.17133 -3.96875,1.43632 0,0.37419 -0.119063,0.68036 -0.264583,0.68036 -0.145521,0 -0.264584,0.35719 -0.264584,0.79375 0,0.77612 -0.0294,0.79376 -1.322916,0.79376 -1.146527,0 -1.322917,-0.0706 -1.322917,-0.52917 z m 10.054167,-5.2917 c 0,-0.29104 -0.119063,-0.52917 -0.264584,-0.52917 -0.14552,0 -0.264583,-0.35719 -0.264583,-0.79375 0,-0.43657 -0.119062,-0.79376 -0.264583,-0.79376 -0.145521,0 -0.264584,-0.23813 -0.264584,-0.52917 0,-0.29104 -0.119062,-0.52917 -0.264583,-0.52917 -0.145521,0 -0.264583,-0.35719 -0.264583,-0.79375 0,-0.43657 -0.119063,-0.79376 -0.264584,-0.79376 -0.14552,0 -0.264583,-0.35719 -0.264583,-0.79375 0,-0.43657 -0.119062,-0.79376 -0.264583,-0.79376 -0.145521,0 -0.264584,-0.23812 -0.264584,-0.52916 0,-0.29105 -0.119062,-0.52917 -0.264583,-0.52917 -0.145521,0 -0.264583,0.23812 -0.264583,0.52917 0,0.29104 -0.119063,0.52916 -0.264584,0.52916 -0.14552,0 -0.264583,0.35719 -0.264583,0.79376 0,0.43656 -0.119062,0.79375 -0.264583,0.79375 -0.145521,0 -0.264584,0.35719 -0.264584,0.79376 0,0.43656 -0.119062,0.79375 -0.264583,0.79375 -0.145521,0 -0.264583,0.35719 -0.264583,0.79376 0,0.43656 -0.119063,0.79375 -0.264584,0.79375 -0.14552,0 -0.264583,0.23813 -0.264583,0.52917 0,0.29104 -0.119063,0.52917 -0.264583,0.52917 -0.145521,0 -0.264584,0.23813 -0.264584,0.52917 0,0.4971 0.17639,0.52917 2.910417,0.52917 2.734027,0 2.910417,-0.0321 2.910417,-0.52917 z m 7.408333,-2.38126 v -8.20213 h 1.058333 1.058334 v 8.20213 8.20213 h -1.058334 -1.058333 z m 6.35,0 v -8.20213 h 0.938067 c 0.969227,0 2.236933,0.93472 2.236933,1.64936 0,0.19277 0.238125,0.52213 0.529167,0.7319 0.291042,0.20977 0.529167,0.56696 0.529167,0.79376 0,0.22679 0.238125,0.58398 0.529166,0.79375 0.291042,0.20977 0.529167,0.59324 0.529167,0.85216 0,0.25892 0.119062,0.47076 0.264583,0.47076 0.145521,0 0.264584,0.21184 0.264584,0.47076 0,0.25892 0.238125,0.6424 0.5291662,0.85217 0.2910417,0.20977 0.5291667,0.56696 0.5291667,0.79375 0,0.22679 0.238125,0.58398 0.5291667,0.79376 0.2910417,0.20977 0.5291667,0.56696 0.5291667,0.79375 0,0.22679 0.238125,0.58398 0.5291666,0.79375 0.2910417,0.20978 0.5291667,0.53913 0.5291667,0.7319 0,0.33768 1.1477202,1.64937 1.443183,1.64937 0.079375,0 0.144317,-2.73845 0.144317,-6.08545 v -6.08545 h 1.0583334 1.0583333 v 8.20213 8.20213 h -0.938067 c -0.9692269,0 -2.236933,-0.93473 -2.236933,-1.64937 0,-0.19277 -0.238125,-0.52212 -0.5291667,-0.7319 -0.2910417,-0.20977 -0.5291667,-0.56696 -0.5291667,-0.79375 0,-0.2268 -0.238125,-0.58398 -0.5291666,-0.79376 -0.2910417,-0.20977 -0.5291667,-0.56696 -0.5291667,-0.79375 0,-0.22679 -0.238125,-0.58398 -0.5291667,-0.79376 -0.2910416,-0.20977 -0.5291667,-0.56696 -0.5291667,-0.79375 0,-0.22679 -0.2381252,-0.58398 -0.5291662,-0.79375 -0.291042,-0.20978 -0.529167,-0.56697 -0.529167,-0.79376 0,-0.22679 -0.238125,-0.58398 -0.529167,-0.79375 -0.291041,-0.20977 -0.529166,-0.56697 -0.529166,-0.79376 0,-0.22679 -0.238125,-0.58398 -0.529167,-0.79375 -0.291042,-0.20977 -0.529167,-0.54222 -0.529167,-0.73877 0,-0.35505 -0.617852,-1.11333 -0.907142,-1.11333 -0.08316,0 -0.151191,2.73846 -0.151191,6.08545 v 6.08546 h -1.058333 -1.058334 z m 20.1083337,1.05834 v -7.14379 H 1.719789 -0.39687766 v -1.05834 -1.05834 H 5.1593724 10.715622 v 1.05834 1.05834 H 8.5989558 6.4822891 v 7.14379 7.14379 H 5.1593724 3.8364557 Z m 10.0541663,-1.05834 v -8.20213 h 2.910417 c 1.76389,0 2.910417,0.10423 2.910417,0.26458 0,0.14552 0.595312,0.26459 1.322917,0.26459 0.727604,0 1.322916,0.11906 1.322916,0.26458 0,0.14552 0.184005,0.26459 0.408901,0.26459 0.529291,0 1.707766,1.17848 1.707766,1.70777 0,0.2249 0.119062,0.40891 0.264583,0.40891 0.146992,0 0.264584,0.70555 0.264584,1.5875 0,0.88195 -0.117592,1.58751 -0.264584,1.58751 -0.145521,0 -0.264583,0.23813 -0.264583,0.52917 0,0.29104 -0.119063,0.52917 -0.264583,0.52917 -0.145521,0 -0.264584,0.23813 -0.264584,0.52917 0,0.35278 -0.17639,0.52917 -0.529166,0.52917 -0.291042,0 -0.529167,0.11906 -0.529167,0.26459 0,0.14552 -0.187098,0.26458 -0.415774,0.26458 -0.509953,0 -1.171726,0.62879 -1.171726,1.11332 0,0.19656 0.238125,0.529 0.529167,0.73877 0.291041,0.20978 0.529166,0.56697 0.529166,0.79376 0,0.22679 0.238125,0.58398 0.529167,0.79375 0.291042,0.20978 0.529167,0.59325 0.529167,0.85217 0,0.25892 0.119062,0.47076 0.264583,0.47076 0.145521,0 0.264583,0.23812 0.264583,0.52917 0,0.29104 0.119063,0.52917 0.264584,0.52917 0.14552,0 0.264583,0.23812 0.264583,0.52917 0,0.29104 0.119062,0.52917 0.264583,0.52917 0.145521,0 0.264584,0.11906 0.264584,0.26458 0,0.14552 -0.544285,0.26459 -1.209525,0.26459 -1.214048,0 -1.965475,-0.42564 -1.965475,-1.11333 0,-0.19655 -0.238125,-0.52899 -0.529167,-0.73877 -0.291042,-0.20977 -0.529167,-0.59324 -0.529167,-0.85216 0,-0.25892 -0.119062,-0.47076 -0.264583,-0.47076 -0.145521,0 -0.264583,-0.23813 -0.264583,-0.52917 0,-0.29105 -0.119063,-0.52917 -0.264584,-0.52917 -0.145521,0 -0.264583,-0.21184 -0.264583,-0.47076 0,-0.25892 -0.238125,-0.64239 -0.529167,-0.85217 -0.291041,-0.20977 -0.529166,-0.59324 -0.529166,-0.85216 0,-0.36341 -0.215469,-0.47076 -0.944941,-0.47076 -1.54009,0 -1.700893,0.36092 -1.700893,3.81758 v 3.06163 h -1.058333 -1.058334 z m 6.879167,-0.52917 c 0,-0.14552 0.187098,-0.26459 0.415774,-0.26459 0.618213,0 1.171726,-0.66809 1.171726,-1.41427 0,-0.36207 0.148828,-0.72776 0.330729,-0.81265 0.264584,-0.12347 0.264584,-0.18521 0,-0.30868 -0.181901,-0.0849 -0.330729,-0.44749 -0.330729,-0.80578 0,-0.3583 -0.292245,-0.94369 -0.649433,-1.30088 -0.598805,-0.59881 -0.846309,-0.64943 -3.175,-0.64943 h -2.525567 v 2.91043 2.91043 h 2.38125 c 1.41111,0 2.38125,-0.10779 2.38125,-0.26458 z m 7.9375,0.52917 v -8.20213 h 4.497917 4.497917 v 1.05834 1.05834 h -3.175 -3.175 v 2.64584 2.64585 h 2.645833 2.645833 v 0.79376 0.79375 h -2.645833 -2.645833 v 2.64585 2.64585 h 3.175 3.175 v 1.05834 1.05834 h -4.497917 -4.497917 z m 12.7,0.55121 c 0,-5.85618 -0.07703,-7.67658 -0.328366,-7.76036 -0.238797,-0.0796 -0.207865,-0.22996 0.113392,-0.55122 0.374799,-0.3748 1.066263,-0.44176 4.5617,-0.44176 h 4.119941 v 1.05834 1.05834 h -3.175 -3.175 v 2.64584 2.64585 h 2.910417 2.910416 v 0.79376 0.79375 h -2.910416 -2.910417 v 2.64585 2.64585 h 3.175 3.175 v 1.05834 1.05834 h -4.233333 -4.233334 z m 21.695834,0.50713 v -7.14379 H 60.986456 58.86979 v -1.05834 -1.05834 h 5.55625 5.55625 v 1.05834 1.05834 h -2.116667 -2.116667 v 7.14379 7.14379 H 64.42604 63.103123 Z m 10.054167,-1.05834 v -8.20213 h 4.233333 4.233333 v 1.05834 1.05834 h -3.175 -3.175 v 2.64584 2.64585 h 2.910417 2.910417 v 0.79376 0.79375 h -2.910417 -2.910417 v 2.64585 2.64585 h 3.175 3.175 v 1.05834 1.05834 H 77.390623 73.15729 Z m 17.4625,7.93754 c 0,-0.14552 -0.357188,-0.26458 -0.79375,-0.26458 -0.436563,0 -0.79375,-0.11906 -0.79375,-0.26459 0,-0.14552 -0.181181,-0.26458 -0.402627,-0.26458 -0.692679,0 -3.30154,-2.81795 -3.30154,-3.56615 0,-0.36696 -0.119062,-0.66721 -0.264583,-0.66721 -0.145521,0 -0.264583,-0.58539 -0.264583,-1.30088 0,-0.78199 -0.131919,-1.36243 -0.33073,-1.45521 -0.264583,-0.12348 -0.264583,-0.18521 0,-0.30868 0.198811,-0.0928 0.33073,-0.67323 0.33073,-1.45522 0,-0.71548 0.119062,-1.30088 0.264583,-1.30088 0.145521,0 0.264583,-0.23812 0.264583,-0.52917 0,-0.29104 0.119063,-0.52917 0.264584,-0.52917 0.14552,0 0.264583,-0.18173 0.264583,-0.40384 0,-0.52505 2.246106,-2.77117 2.771161,-2.77117 0.222112,0 0.403839,-0.11907 0.403839,-0.26459 0,-0.14552 0.357187,-0.26458 0.79375,-0.26458 0.436562,0 0.79375,-0.11907 0.79375,-0.26459 0,-0.15434 0.881943,-0.26458 2.116667,-0.26458 1.234723,0 2.116666,0.11024 2.116666,0.26458 0,0.14552 0.357188,0.26459 0.79375,0.26459 0.436563,0 0.79375,0.11906 0.79375,0.26458 0,0.14552 0.181727,0.26459 0.403839,0.26459 0.525055,0 2.771161,2.24612 2.771161,2.77117 0,0.22211 0.119063,0.40384 0.264584,0.40384 0.145523,0 0.264583,0.11907 0.264583,0.26459 0,0.14699 -0.705556,0.26458 -1.5875,0.26458 -1.255474,0 -1.5875,-0.0855 -1.5875,-0.4089 0,-0.52929 -1.178475,-1.70777 -1.707766,-1.70777 -0.224896,0 -0.408901,-0.11907 -0.408901,-0.26459 0,-0.15434 -0.881943,-0.26458 -2.116666,-0.26458 -1.234724,0 -2.116667,0.11024 -2.116667,0.26458 0,0.14552 -0.181727,0.26459 -0.403839,0.26459 -0.682204,0 -2.771161,2.28841 -2.771161,3.03576 0,0.36763 -0.119063,0.66842 -0.264583,0.66842 -0.15434,0 -0.264584,0.88195 -0.264584,2.11668 0,1.23473 0.110244,2.11668 0.264584,2.11668 0.14552,0 0.264583,0.18173 0.264583,0.40384 0,0.52506 2.246106,2.77118 2.771161,2.77118 0.222112,0 0.403839,0.11906 0.403839,0.26458 0,0.15435 0.881943,0.26459 2.116667,0.26459 1.234723,0 2.116666,-0.11024 2.116666,-0.26459 0,-0.14552 0.187929,-0.26458 0.417619,-0.26458 0.22969,0 0.875199,-0.47625 1.434465,-1.05834 0.895995,-0.93256 1.160814,-1.05834 2.228215,-1.05834 0.666252,0 1.211368,0.11906 1.211368,0.26458 0,0.14553 -0.11906,0.26459 -0.264583,0.26459 -0.145521,0 -0.264584,0.18173 -0.264584,0.40384 0,0.52506 -2.246106,2.77118 -2.771161,2.77118 -0.222112,0 -0.403839,0.11906 -0.403839,0.26458 0,0.14553 -0.357187,0.26459 -0.79375,0.26459 -0.436562,0 -0.79375,0.11906 -0.79375,0.26458 0,0.15434 -0.881943,0.26459 -2.116666,0.26459 -1.234724,0 -2.116667,-0.11025 -2.116667,-0.26459 z m 13.22917,-7.93754 v -8.20213 h 1.05833 1.05833 v 3.70419 3.70418 h 3.96875 3.96875 v -3.32621 c 0,-3.74445 0.14072,-4.08216 1.7009,-4.08216 h 0.94494 v 8.20213 8.20213 h -1.32292 -1.32292 v -3.70419 -3.70419 h -3.96875 -3.96875 v 3.70419 3.70419 h -1.05833 -1.05833 z m 16.40416,0 v -8.20213 h 1.20953 c 1.21405,0 1.96547,0.42564 1.96547,1.11332 0,0.19655 0.23813,0.529 0.52917,0.73877 0.29104,0.20977 0.52917,0.56696 0.52917,0.79376 0,0.22679 0.23812,0.58398 0.52916,0.79375 0.29105,0.20977 0.52917,0.56696 0.52917,0.79375 0,0.2268 0.23813,0.58399 0.52917,0.79376 0.29104,0.20977 0.52916,0.59324 0.52916,0.85216 0,0.25892 0.11907,0.47076 0.26459,0.47076 0.14552,0 0.26458,0.21184 0.26458,0.47076 0,0.25892 0.23813,0.6424 0.52917,0.85217 0.29104,0.20977 0.52916,0.56696 0.52916,0.79375 0,0.22679 0.23813,0.58398 0.52917,0.79376 0.29104,0.20977 0.52917,0.56696 0.52917,0.79375 0,0.22679 0.23812,0.58398 0.52916,0.79375 0.29105,0.20978 0.52917,0.59325 0.52917,0.85217 0,0.29437 0.19827,0.47076 0.52917,0.47076 0.51383,0 0.52916,-0.17639 0.52916,-6.08545 v -6.08545 h 1.05834 1.05833 v 8.20213 8.20213 h -1.32292 c -1.09181,0 -1.32291,-0.0822 -1.32291,-0.47076 0,-0.25892 -0.23813,-0.64239 -0.52917,-0.85217 -0.29104,-0.20977 -0.52917,-0.56696 -0.52917,-0.79375 0,-0.2268 -0.23812,-0.58398 -0.52916,-0.79376 -0.29104,-0.20977 -0.52917,-0.56696 -0.52917,-0.79375 0,-0.2268 -0.23812,-0.58398 -0.52917,-0.79376 -0.29104,-0.20977 -0.52916,-0.56696 -0.52916,-0.79375 0,-0.22679 -0.23813,-0.58398 -0.52917,-0.79376 -0.29104,-0.20977 -0.52917,-0.56696 -0.52917,-0.79375 0,-0.22679 -0.23812,-0.58398 -0.52916,-0.79375 -0.29104,-0.20978 -0.52917,-0.56697 -0.52917,-0.79376 0,-0.22679 -0.23812,-0.58398 -0.52917,-0.79375 -0.29104,-0.20977 -0.52916,-0.56696 -0.52916,-0.79376 0,-0.22679 -0.23813,-0.58398 -0.52917,-0.79375 -0.29104,-0.20977 -0.52917,-0.59325 -0.52917,-0.85216 0,-0.25892 -0.11906,-0.47077 -0.26458,-0.47077 -0.16872,0 -0.26458,2.20488 -0.26458,6.08545 v 6.08546 h -1.32292 -1.32292 z m 22.225,7.93754 c 0,-0.14552 -0.35718,-0.26458 -0.79375,-0.26458 -0.43656,0 -0.79375,-0.11906 -0.79375,-0.26459 0,-0.14552 -0.18172,-0.26458 -0.40384,-0.26458 -0.52505,0 -2.77116,-2.24612 -2.77116,-2.77118 0,-0.22211 -0.11906,-0.40384 -0.26458,-0.40384 -0.14552,0 -0.26458,-0.23813 -0.26458,-0.52917 0,-0.29104 -0.11907,-0.52917 -0.26459,-0.52917 -0.16035,0 -0.26458,-1.14653 -0.26458,-2.91043 0,-1.7639 0.10423,-2.91044 0.26458,-2.91044 0.14552,0 0.26459,-0.23812 0.26459,-0.52917 0,-0.29104 0.11906,-0.52917 0.26458,-0.52917 0.14552,0 0.26458,-0.18256 0.26458,-0.40569 0,-0.49515 1.6995,-2.24015 2.18173,-2.24015 0.19101,0 0.51892,-0.23813 0.72869,-0.52917 0.22397,-0.31075 0.68492,-0.52917 1.11674,-0.52917 0.40444,0 0.73534,-0.11907 0.73534,-0.26459 0,-0.15434 0.88195,-0.26458 2.11667,-0.26458 1.23472,0 2.11667,0.11024 2.11667,0.26458 0,0.14552 0.35718,0.26459 0.79375,0.26459 0.43656,0 0.79375,0.11906 0.79375,0.26458 0,0.14552 0.18118,0.26459 0.40262,0.26459 0.52402,0 3.30154,2.77753 3.30154,3.30155 0,0.22145 0.11907,0.40263 0.26459,0.40263 0.14552,0 0.26458,0.47626 0.26458,1.05834 0,0.58209 0.11906,1.05834 0.26458,1.05834 0.14552,0 0.26459,0.59532 0.26459,1.32293 0,0.72761 -0.11907,1.32292 -0.26459,1.32292 -0.14552,0 -0.26458,0.47625 -0.26458,1.05834 0,0.58209 -0.11906,1.05834 -0.26458,1.05834 -0.14552,0 -0.26459,0.18118 -0.26459,0.40263 0,0.52402 -2.77752,3.30156 -3.30154,3.30156 -0.22144,0 -0.40262,0.11906 -0.40262,0.26458 0,0.14553 -0.23813,0.26459 -0.52917,0.26459 -0.29104,0 -0.52917,0.11906 -0.52917,0.26458 0,0.15679 -0.97014,0.26459 -2.38125,0.26459 -1.41111,0 -2.38125,-0.1078 -2.38125,-0.26459 z m 5.02709,-2.38126 c 0.20977,-0.29105 0.54221,-0.52917 0.73876,-0.52917 0.48454,0 1.11332,-0.66178 1.11332,-1.17173 0,-0.22868 0.11906,-0.41578 0.26458,-0.41578 0.14552,0 0.26459,-0.23813 0.26459,-0.52917 0,-0.29104 0.11906,-0.52917 0.26458,-0.52917 0.15679,0 0.26458,-0.97014 0.26458,-2.38126 0,-1.41112 -0.10779,-2.38127 -0.26458,-2.38127 -0.14552,0 -0.26458,-0.18173 -0.26458,-0.40384 0,-0.52506 -2.24611,-2.77117 -2.77116,-2.77117 -0.22212,0 -0.40384,-0.11907 -0.40384,-0.26459 0,-0.15434 -0.88195,-0.26458 -2.11667,-0.26458 -1.23472,0 -2.11667,0.11024 -2.11667,0.26458 0,0.14552 -0.18256,0.26459 -0.40569,0.26459 -0.52663,0 -2.24014,1.71352 -2.24014,2.24015 0,0.22313 -0.11906,0.40569 -0.26458,0.40569 -0.14552,0 -0.26459,0.23813 -0.26459,0.52917 0,0.29105 -0.11906,0.52917 -0.26458,0.52917 -0.15119,0 -0.26458,0.79376 -0.26458,1.8521 0,1.05834 0.11339,1.85209 0.26458,1.85209 0.14552,0 0.26458,0.23813 0.26458,0.52917 0,0.29104 0.11907,0.52917 0.26459,0.52917 0.14552,0 0.26458,0.18256 0.26458,0.4057 0,0.52663 1.71351,2.24015 2.24014,2.24015 0.22313,0 0.40569,0.11906 0.40569,0.26458 0,0.1563 0.95067,0.26459 2.32284,0.26459 2.01932,0 2.37268,-0.0691 2.70425,-0.52917 z m 8.20208,-5.55628 v -8.20213 h 0.94494 c 1.69809,0 1.70089,0.0124 1.70089,7.52177 v 6.76581 h 2.64584 2.64583 v 1.05834 1.05834 h -3.96875 -3.96875 z m 15.875,7.93754 c 0,-0.14552 -0.35719,-0.26458 -0.79375,-0.26458 -0.43656,0 -0.79375,-0.11906 -0.79375,-0.26459 0,-0.14552 -0.18118,-0.26458 -0.40263,-0.26458 -0.69268,0 -3.30154,-2.81795 -3.30154,-3.56615 0,-0.36696 -0.11906,-0.66721 -0.26458,-0.66721 -0.16035,0 -0.26458,-1.14653 -0.26458,-2.91043 0,-1.7639 0.10423,-2.91044 0.26458,-2.91044 0.14552,0 0.26458,-0.23812 0.26458,-0.52917 0,-0.29104 0.11907,-0.52917 0.26459,-0.52917 0.14552,0 0.26458,-0.18173 0.26458,-0.40384 0,-0.52505 2.24611,-2.77117 2.77116,-2.77117 0.22211,0 0.40384,-0.11907 0.40384,-0.26459 0,-0.14552 0.35719,-0.26458 0.79375,-0.26458 0.43656,0 0.79375,-0.11907 0.79375,-0.26459 0,-0.15434 0.88194,-0.26458 2.11667,-0.26458 1.23472,0 2.11666,0.11024 2.11666,0.26458 0,0.14552 0.35719,0.26459 0.79375,0.26459 0.43657,0 0.79375,0.11906 0.79375,0.26458 0,0.14552 0.18173,0.26459 0.40384,0.26459 0.52506,0 2.77116,2.24612 2.77116,2.77117 0,0.22211 0.11907,0.40384 0.26459,0.40384 0.14552,0 0.26458,0.23813 0.26458,0.52917 0,0.29105 0.11906,0.52917 0.26458,0.52917 0.16036,0 0.26459,1.14654 0.26459,2.91044 0,1.7639 -0.10423,2.91043 -0.26459,2.91043 -0.14552,0 -0.26458,0.23813 -0.26458,0.52917 0,0.29104 -0.11906,0.52917 -0.26458,0.52917 -0.14552,0 -0.26459,0.18173 -0.26459,0.40384 0,0.52506 -2.2461,2.77118 -2.77116,2.77118 -0.22211,0 -0.40384,0.11906 -0.40384,0.26458 0,0.14553 -0.35718,0.26459 -0.79375,0.26459 -0.43656,0 -0.79375,0.11906 -0.79375,0.26458 0,0.15434 -0.88194,0.26459 -2.11666,0.26459 -1.23473,0 -2.11667,-0.11025 -2.11667,-0.26459 z m 4.23333,-2.11668 c 0,-0.14552 0.18173,-0.26458 0.40384,-0.26458 0.68221,0 2.77116,-2.28842 2.77116,-3.03576 0,-0.36764 0.11907,-0.66843 0.26459,-0.66843 0.15119,0 0.26458,-0.79375 0.26458,-1.85209 0,-1.05834 -0.11339,-1.8521 -0.26458,-1.8521 -0.14552,0 -0.26459,-0.30079 -0.26459,-0.66842 0,-0.74735 -2.08895,-3.03576 -2.77116,-3.03576 -0.22211,0 -0.40384,-0.11907 -0.40384,-0.26459 0,-0.15434 -0.88194,-0.26458 -2.11666,-0.26458 -1.23473,0 -2.11667,0.11024 -2.11667,0.26458 0,0.14552 -0.18173,0.26459 -0.40384,0.26459 -0.6822,0 -2.77116,2.28841 -2.77116,3.03576 0,0.36763 -0.11906,0.66842 -0.26458,0.66842 -0.15119,0 -0.26459,0.79376 -0.26459,1.8521 0,1.05834 0.1134,1.85209 0.26459,1.85209 0.14552,0 0.26458,0.30001 0.26458,0.66668 0,0.44625 0.45929,1.13959 1.38906,2.09692 l 1.38907,1.43023 2.3151,0.0198 c 1.38019,0.0118 2.3151,-0.0871 2.3151,-0.24482 z m 14.2875,2.11668 c 0,-0.14552 -0.35718,-0.26458 -0.79375,-0.26458 -0.43656,0 -0.79375,-0.11906 -0.79375,-0.26459 0,-0.14552 -0.18172,-0.26458 -0.40383,-0.26458 -0.52506,0 -2.77117,-2.24612 -2.77117,-2.77118 0,-0.22211 -0.11906,-0.40384 -0.26458,-0.40384 -0.14552,0 -0.26458,-0.23813 -0.26458,-0.52917 0,-0.29104 -0.11907,-0.52917 -0.26459,-0.52917 -0.16035,0 -0.26458,-1.14653 -0.26458,-2.91043 0,-1.7639 0.10423,-2.91044 0.26458,-2.91044 0.14552,0 0.26459,-0.23812 0.26459,-0.52917 0,-0.29104 0.11906,-0.52917 0.26458,-0.52917 0.14552,0 0.26458,-0.18173 0.26458,-0.40384 0,-0.52505 2.24611,-2.77117 2.77117,-2.77117 0.22211,0 0.40383,-0.11907 0.40383,-0.26459 0,-0.14552 0.35719,-0.26458 0.79375,-0.26458 0.43657,0 0.79375,-0.11907 0.79375,-0.26459 0,-0.15434 0.88195,-0.26458 2.11667,-0.26458 1.23472,0 2.11667,0.11024 2.11667,0.26458 0,0.14552 0.35719,0.26459 0.79375,0.26459 0.43656,0 0.79375,0.11906 0.79375,0.26458 0,0.14552 0.18171,0.26459 0.40383,0.26459 0.52507,0 2.77117,2.24612 2.77117,2.77117 0,0.22211 0.11906,0.40384 0.26458,0.40384 0.14552,0 0.26458,0.11907 0.26458,0.26459 0,0.14552 -0.54512,0.26458 -1.21136,0.26458 -1.06741,0 -1.33223,-0.12578 -2.22822,-1.05833 -0.55928,-0.58209 -1.20477,-1.05834 -1.43446,-1.05834 -0.22969,0 -0.41762,-0.11907 -0.41762,-0.26459 0,-0.15119 -0.79375,-0.26458 -1.85209,-0.26458 -1.05833,0 -1.85208,0.11339 -1.85208,0.26458 0,0.14552 -0.30162,0.26459 -0.67028,0.26459 -0.7453,0 -2.50472,1.57357 -2.50472,2.24015 0,0.22313 -0.11906,0.40569 -0.26458,0.40569 -0.14552,0 -0.26459,0.23813 -0.26459,0.52917 0,0.29105 -0.11906,0.52917 -0.26458,0.52917 -0.15119,0 -0.26458,0.79376 -0.26458,1.8521 0,1.05834 0.11339,1.85209 0.26458,1.85209 0.14552,0 0.26458,0.30079 0.26458,0.66843 0,0.74734 2.08896,3.03576 2.77117,3.03576 0.22211,0 0.40383,0.11906 0.40383,0.26458 0,0.15435 0.88195,0.26459 2.11667,0.26459 1.23472,0 2.11667,-0.11024 2.11667,-0.26459 0,-0.14552 0.18256,-0.26458 0.40569,-0.26458 0.52663,0 2.24014,-1.71352 2.24014,-2.24015 0,-0.22314 0.11906,-0.4057 0.26458,-0.4057 0.14553,0 0.26459,-0.35719 0.26459,-0.79376 v -0.79375 h -2.91042 -2.91042 v -1.05834 c 0,-1.01736 0.33974,-1.41653 0.61927,-0.72761 0.10132,0.24971 0.20889,0.2335 0.43907,-0.0661 0.23017,-0.29964 0.33774,-0.31585 0.43906,-0.0662 0.1587,0.39111 1.6776,0.451 1.6776,0.0662 0,-0.40463 4.15341,-0.34139 4.34359,0.0661 0.12345,0.26459 0.18521,0.26459 0.30866,0 0.37756,-0.80902 0.63942,-0.18594 0.63942,1.52137 0,1.05833 -0.1134,1.85209 -0.26458,1.85209 -0.14552,0 -0.26459,0.23813 -0.26459,0.52917 0,0.29104 -0.11906,0.52917 -0.26458,0.52917 -0.14552,0 -0.26458,0.18173 -0.26458,0.40384 0,0.52506 -2.2461,2.77118 -2.77117,2.77118 -0.22212,0 -0.40383,0.11906 -0.40383,0.26458 0,0.14553 -0.35719,0.26459 -0.79375,0.26459 -0.43656,0 -0.79375,0.11906 -0.79375,0.26458 0,0.15434 -0.88195,0.26459 -2.11667,0.26459 -1.23472,0 -2.11667,-0.11025 -2.11667,-0.26459 z m 13.22917,-7.93754 v -8.20213 h 1.05833 1.05834 v 8.20213 8.20213 h -1.05834 -1.05833 z m 5.82083,0.37797 c 0,-6.42815 0.0675,-7.89159 0.37799,-8.20212 0.29519,-0.29522 1.28008,-0.37798 4.49791,-0.37798 h 4.11994 v 1.05834 1.05834 h -3.175 -3.175 v 2.64584 2.64585 h 2.91041 c 2.63139,0 3.4925,0.21344 2.57969,0.63942 -0.26458,0.12347 -0.26458,0.1852 0,0.30868 0.91281,0.42597 0.0517,0.63941 -2.57969,0.63941 h -2.91041 v 2.64585 2.64585 h 3.175 3.175 v 1.05834 1.05834 h -4.49792 -4.49792 z m 15.875,7.55957 c 0,-0.14552 -0.30162,-0.26458 -0.67026,-0.26458 -0.74531,0 -2.50474,-1.57357 -2.50474,-2.24015 0,-0.22314 -0.11906,-0.4057 -0.26458,-0.4057 -0.14552,0 -0.26458,-0.23813 -0.26458,-0.52917 0,-0.45861 0.1764,-0.52917 1.32291,-0.52917 1.01682,0 1.32292,0.0946 1.32292,0.4089 0,0.64293 1.22981,1.70778 1.97234,1.70778 0.37041,0 0.67349,0.11906 0.67349,0.26458 0,0.14553 0.23813,0.26459 0.52917,0.26459 0.29104,0 0.52917,-0.11906 0.52917,-0.26459 0,-0.14552 0.30615,-0.26458 0.68035,-0.26458 0.7656,0 1.43631,-0.54717 1.43631,-1.17173 0,-0.22868 0.11907,-0.41578 0.26459,-0.41578 0.14552,0 0.26458,-0.30163 0.26458,-0.67028 0,-0.89368 -1.61105,-2.50474 -2.50473,-2.50474 -0.36864,0 -0.67027,-0.11906 -0.67027,-0.26458 0,-0.14553 -0.35719,-0.26459 -0.79375,-0.26459 -0.43656,0 -0.79375,-0.11906 -0.79375,-0.26458 0,-0.14553 -0.35719,-0.26459 -0.79375,-0.26459 -0.43656,0 -0.79375,-0.11906 -0.79375,-0.26458 0,-0.14553 -0.18402,-0.26459 -0.40891,-0.26459 -0.52927,0 -1.70776,-1.17848 -1.70776,-1.70777 0,-0.2249 -0.11906,-0.40891 -0.26458,-0.40891 -0.14552,0 -0.26458,-0.59531 -0.26458,-1.32292 0,-0.72761 0.11906,-1.32292 0.26458,-1.32292 0.14552,0 0.26458,-0.18257 0.26458,-0.4057 0,-0.66658 1.75943,-2.24015 2.50474,-2.24015 0.36864,0 0.67026,-0.11907 0.67026,-0.26459 0,-0.15119 0.79375,-0.26458 1.85209,-0.26458 1.05833,0 1.85208,0.11339 1.85208,0.26458 0,0.14552 0.30163,0.26459 0.67027,0.26459 0.74531,0 2.50473,1.57357 2.50473,2.24015 0,0.22313 0.11906,0.4057 0.26458,0.4057 0.14553,0 0.26459,0.23812 0.26459,0.52917 0,0.45199 -0.1764,0.52916 -1.20952,0.52916 -1.24857,0 -1.96548,-0.42738 -1.96548,-1.17173 0,-0.23939 -0.2245,-0.41577 -0.52917,-0.41577 -0.29104,0 -0.52917,-0.11907 -0.52917,-0.26459 0,-0.14552 -0.66026,-0.26458 -1.46724,-0.26458 -1.20502,0 -1.5833,0.11606 -2.11667,0.64943 -1.12107,1.12107 -0.76213,3.58392 0.52231,3.58392 0.22868,0 0.41577,0.11907 0.41577,0.26459 0,0.14552 0.35719,0.26458 0.79375,0.26458 0.43656,0 0.79375,0.11907 0.79375,0.26459 0,0.14552 0.47625,0.26458 1.05833,0.26458 0.58209,0 1.05834,0.11907 1.05834,0.26459 0,0.14552 0.23812,0.26458 0.52916,0.26458 0.29105,0 0.52917,0.11906 0.52917,0.26459 0,0.14552 0.18709,0.26458 0.41577,0.26458 0.53475,0 1.17173,0.637 1.17173,1.17173 0,0.22868 0.11906,0.41578 0.26458,0.41578 0.14936,0 0.26459,0.75198 0.26459,1.72676 0,1.69225 -0.0236,1.75043 -1.18367,2.91044 -0.65101,0.65102 -1.36538,1.18367 -1.5875,1.18367 -0.22212,0 -0.40383,0.11906 -0.40383,0.26458 0,0.15434 -0.88194,0.26459 -2.11667,0.26459 -1.23473,0 -2.11667,-0.11025 -2.11667,-0.26459 z"
       id="path847" />
  </g>
</svg>
